<svg xmlns="http://www.w3.org/2000/svg" xmlns:xlink="http://www.w3.org/1999/xlink" x="0px" y="0px" viewBox="0 0 64 64" width="64" height="64"><title>notification</title><g class="nc-icon-wrapper" stroke-linecap="round" stroke-linejoin="round" stroke-width="4" fill="#677694" stroke="#677694"><path data-cap="butt" data-color="color-2" fill="none" stroke-miterlimit="10" d="M23.9,53.5c0,0.1,0,0.2,0,0.3 c0,4.5,3.7,8.2,8.2,8.2s8.2-3.7,8.2-8.2c0-0.1,0-0.2,0-0.3"/> <path fill="none" stroke="#677694" stroke-miterlimit="10" d="M52,30c0-4.4,0-8.2,0-8.2 C52,11.2,42.7,2,32,2s-20,9.3-20,20c0,0,0,3.6,0,8c0,9.1-7.3,10.5-7.3,15.6c0,4.6,10.5,8.2,27.3,8.2s27.3-3.6,27.3-8.2 C59.3,40.5,52,39.1,52,30z"/></g></svg>