<svg xmlns="http://www.w3.org/2000/svg" xmlns:xlink="http://www.w3.org/1999/xlink" x="0px" y="0px" width="16px" height="16px" viewBox="0 0 16 16"><g transform="translate(0, 0)"><path fill="none" stroke="#444444" stroke-linecap="round" stroke-linejoin="round" stroke-miterlimit="10" d="M14.5,2.5h-13
	c-0.552,0-1,0.448-1,1v11c0,0.552,0.448,1,1,1h13c0.552,0,1-0.448,1-1v-11C15.5,2.948,15.052,2.5,14.5,2.5z"></path>
<line fill="none" stroke="#444444" stroke-linecap="round" stroke-linejoin="round" stroke-miterlimit="10" x1="0.5" y1="5.5" x2="15.5" y2="5.5"></line>
<line fill="none" stroke="#444444" stroke-linecap="round" stroke-linejoin="round" stroke-miterlimit="10" x1="4.5" y1="0.5" x2="4.5" y2="2.5"></line>
<line fill="none" stroke="#444444" stroke-linecap="round" stroke-linejoin="round" stroke-miterlimit="10" x1="11.5" y1="0.5" x2="11.5" y2="2.5"></line>
<line data-color="color-2" fill="none" stroke="#444444" stroke-linecap="round" stroke-linejoin="round" stroke-miterlimit="10" x1="5.5" y1="7.5" x2="5.5" y2="13.5"></line>
<line data-color="color-2" fill="none" stroke="#444444" stroke-linecap="round" stroke-linejoin="round" stroke-miterlimit="10" x1="10.5" y1="7.5" x2="10.5" y2="13.5"></line>
<line data-color="color-2" fill="none" stroke="#444444" stroke-linecap="round" stroke-linejoin="round" stroke-miterlimit="10" x1="2.5" y1="10.5" x2="13.5" y2="10.5"></line>
</g></svg>