<svg xmlns="http://www.w3.org/2000/svg" xmlns:xlink="http://www.w3.org/1999/xlink" x="0px" y="0px" viewBox="0 0 64 64" width="12" height="12"><title>jobs2</title><g class="nc-icon-wrapper" stroke-linecap="round" stroke-linejoin="round" stroke-width="4" fill="rgba(255, 255, 255, 0.8)" stroke="rgba(255, 255, 255, 0.8)"><polygon data-color="color-2" fill="none" stroke-miterlimit="10" points=" 62,2 28,2 28,30 38,22 62,22 "/> <circle fill="none" stroke="rgba(255, 255, 255, 0.8)" stroke-miterlimit="10" cx="50" cy="36" r="6"/> <circle fill="none" stroke="rgba(255, 255, 255, 0.8)" stroke-miterlimit="10" cx="14" cy="36" r="6"/> <path fill="none" stroke="rgba(255, 255, 255, 0.8)" stroke-miterlimit="10" d="M26,60v-5.965 c0-1.42-0.745-2.726-1.967-3.449C22.088,49.435,18.716,48,14,48c-4.777,0-8.127,1.426-10.052,2.575C2.736,51.299,2,52.601,2,54.013 V60H26z"/> <path fill="none" stroke="rgba(255, 255, 255, 0.8)" stroke-miterlimit="10" d="M62,60v-5.965 c0-1.42-0.745-2.726-1.967-3.449C58.088,49.435,54.716,48,50,48c-4.777,0-8.127,1.426-10.052,2.575 C38.736,51.299,38,52.601,38,54.013V60H62z"/></g></svg>